<svg width="55" height="55" viewBox="0 0 55 55" fill="none" xmlns="http://www.w3.org/2000/svg">
<path d="M52.25 39.875V15.125C52.25 12.8425 50.4075 11 48.125 11H9.59753C7.31503 11 5.47253 12.8425 5.47253 15.125V39.875C5.47253 42.1575 7.31503 44 9.59753 44H48.125C50.4075 44 52.25 42.1575 52.25 39.875ZM48.6475 14.8225C49.555 15.73 49.06 16.665 48.565 17.1325L37.4 27.3625L48.125 38.5275C48.455 38.9125 48.675 39.5175 48.29 39.93C47.9325 40.37 47.1075 40.3425 46.75 40.0675L34.7325 29.81L28.8475 35.1725L22.99 29.81L10.9725 40.0675C10.615 40.3425 9.79003 40.37 9.43253 39.93C9.04753 39.5175 9.26753 38.9125 9.59753 38.5275L20.3225 27.3625L9.15753 17.1325C8.66253 16.665 8.16753 15.73 9.07503 14.8225C9.98253 13.915 10.9175 14.355 11.6875 15.015L28.8475 28.875L46.035 15.015C46.805 14.355 47.74 13.915 48.6475 14.8225Z" fill="white"/>
</svg>
