<svg width="71" height="91" viewBox="0 0 71 91" fill="none" xmlns="http://www.w3.org/2000/svg">
<path d="M35.217 4.63965C18.1748 4.63965 4.30994 18.3176 4.30994 35.13C4.30994 42.0343 9.86416 53.1824 20.3709 67.368C26.3887 75.4933 32.4715 82.4802 35.2167 85.5522C37.9622 82.4802 44.045 75.4933 50.0625 67.368C60.5696 53.1824 66.123 42.0346 66.123 35.13C66.1235 18.3176 52.2592 4.63965 35.217 4.63965ZM52.4265 45.0716C49.2122 49.8503 43.7374 54.2279 36.1543 58.0822C35.8602 58.2321 35.5382 58.3067 35.2167 58.3067C34.8947 58.3067 34.5735 58.2321 34.2791 58.0822C26.6955 54.2274 21.2204 49.8498 18.0058 45.071C14.4327 39.7599 14.5116 35.2735 15.2066 32.4459C16.5443 27.0031 21.4354 23.053 26.8365 23.053C30.0115 23.053 32.9125 24.3669 35.2164 26.8039C37.5198 24.3669 40.4208 23.053 43.5958 23.053C48.9964 23.053 53.887 27.0031 55.2246 32.4459C55.9208 35.274 55.9991 39.7599 52.4265 45.0716Z" fill="#FFDCD0"/>
<path d="M43.5963 23.0527C40.4213 23.0527 37.5203 24.3667 35.217 26.8037C32.913 24.3667 30.012 23.0527 26.837 23.0527C21.4359 23.0527 16.5448 27.0029 15.2071 32.4457C14.5121 35.2733 14.4332 39.7596 18.0063 45.0708C21.2206 49.8495 26.696 54.2271 34.2796 58.082C34.5738 58.2319 34.8952 58.3065 35.2172 58.3065C35.5387 58.3065 35.8604 58.2319 36.1548 58.082C43.7379 54.2277 49.2128 49.8501 52.427 45.0714C55.9996 39.7596 55.9213 35.2738 55.2257 32.4457C53.8875 27.0029 48.9969 23.0527 43.5963 23.0527ZM19.1852 33.3973C20.0832 29.7432 23.3013 27.0906 26.837 27.0906C29.4204 27.0906 31.7836 28.5448 33.4918 31.1859C33.8676 31.7668 34.5184 32.1186 35.217 32.1186C35.9158 32.1186 36.5664 31.7668 36.9421 31.1859C38.6503 28.5448 41.0129 27.0906 43.5963 27.0906C47.1315 27.0906 50.349 29.7432 51.2476 33.3973C52.91 40.1607 46.9317 47.8206 35.217 54.0069C23.5016 47.8201 17.5223 40.1602 19.1852 33.3973Z" fill="#EF9F99"/>
<path d="M35.2169 0.601562C15.918 0.601562 0.216675 16.0906 0.216675 35.1298C0.216675 53.6546 32.3405 88.4725 33.7076 89.9458C34.0957 90.3633 34.6431 90.6016 35.2169 90.6016C35.7911 90.6016 36.3388 90.3633 36.7262 89.9458C38.0939 88.4725 70.2167 53.6549 70.2167 35.1298C70.2167 16.0906 54.5159 0.601562 35.2169 0.601562ZM66.1235 35.1298C66.1235 42.0341 60.5698 53.1822 50.063 67.3678C44.0452 75.4931 37.9624 82.48 35.2172 85.552C32.4718 82.48 26.389 75.4931 20.3714 67.3678C9.86438 53.1822 4.31044 42.0344 4.31044 35.1298C4.30989 18.3174 18.1747 4.63945 35.2169 4.63945C52.2592 4.63945 66.1235 18.3174 66.1235 35.1298Z" fill="#EF9F99"/>
</svg>
