<svg width="92" height="91" viewBox="0 0 92 91" fill="none" xmlns="http://www.w3.org/2000/svg">
<g clip-path="url(#clip0_24_1007)">
<path d="M35.4697 88.3266C35.4697 88.3266 33.2091 74.5723 46.2572 69.6121C59.3639 74.5723 57.2658 88.3266 57.2658 88.3266C50.2685 91.0333 42.499 91.0333 35.4697 88.3266Z" fill="#EF9F99"/>
<path d="M46.2563 69.6128C40.96 74.4012 40.9888 86.4108 41.1166 89.8953C39.2009 89.5588 37.3073 89.0352 35.4672 88.3265C35.4674 88.3266 33.2075 74.5715 46.2563 69.6128Z" fill="#EFC7BE"/>
<path d="M76.4536 19.3506C76.4536 19.3506 82.7788 57.8361 46.2697 71.7153C9.59654 57.8361 15.467 19.3506 15.467 19.3506" fill="#EF9F99"/>
<path d="M46.2688 71.7157C9.59571 57.8365 15.4669 19.3513 15.4669 19.3513H27.7627C27.7629 19.3513 24.3522 57.8365 46.2688 71.7157Z" fill="#EFC7BE"/>
<path d="M17.9814 14.1851C16.3539 15.7667 15.4559 17.5138 15.4668 19.3505C15.5089 26.4719 29.195 32.245 46.0357 32.245C62.8763 32.245 76.4942 26.4719 76.4521 19.3505C76.4416 17.5702 75.5784 15.8739 74.0262 14.3313" fill="#D0817B"/>
<path d="M33.2376 25.308L33.2716 31.0636C32.1831 30.8555 31.1281 30.6158 30.113 30.3528L30.0832 25.308C30.078 24.4373 30.7805 23.7307 31.6511 23.7307C32.5216 23.7309 33.2324 24.4375 33.2376 25.308Z" fill="#53C489"/>
<path d="M47.5732 25.308L47.6141 32.2287C47.0905 32.2392 46.5648 32.2456 46.0348 32.2456C45.5069 32.2456 44.9811 32.2392 44.4595 32.2287L44.4186 25.308C44.4135 24.4373 45.1138 23.7307 45.9866 23.7307C46.8574 23.7309 47.568 24.4375 47.5732 25.308Z" fill="#53C489"/>
<path d="M61.9069 25.308L61.9367 30.3507C60.9247 30.6156 59.8725 30.8532 58.7865 31.0636L58.7525 25.308C58.7473 24.4373 59.4477 23.7307 60.3204 23.7307C61.1909 23.7309 61.9017 24.4375 61.9069 25.308Z" fill="#53C489"/>
<path d="M32.5634 3.4364L32.597 9.1163C32.6238 13.6459 28.9737 17.3176 24.444 17.3176C19.9164 17.3176 16.223 13.6459 16.1963 9.1163L16.1627 3.4364C16.1484 1.00961 18.773 -0.386772 20.7524 0.774065C20.9064 0.864414 21.0565 0.969705 21.2022 1.09152L24.3639 3.75385L27.4962 1.09152C29.4819 -0.597002 32.548 0.820294 32.5634 3.4364Z" fill="#EF9F99"/>
<path d="M24.444 17.3176C19.9164 17.3176 16.223 13.6459 16.1963 9.1163L16.1627 3.4364C16.1484 1.00961 18.773 -0.386772 20.7524 0.774065C20.4314 5.5561 20.577 13.4735 24.444 17.3176Z" fill="#FFDCD0"/>
<path d="M46.8977 3.4364L46.9312 9.1163C46.958 13.6459 43.308 17.3176 38.7783 17.3176C34.2507 17.3176 30.5573 13.6459 30.5305 9.1163L30.4969 3.4364C30.4826 1.00961 33.1072 -0.386772 35.0867 0.774065C35.2407 0.864414 35.3907 0.969705 35.5364 1.09152L38.6981 3.75385L41.8305 1.09152C43.8161 -0.597002 46.8822 0.820294 46.8977 3.4364Z" fill="#EF9F99"/>
<path d="M38.7783 17.3176C34.2507 17.3176 30.5573 13.6459 30.5305 9.1163L30.4969 3.4364C30.4826 1.00961 33.1072 -0.386772 35.0867 0.774065C34.7657 5.5561 34.9114 13.4735 38.7783 17.3176Z" fill="#FFDCD0"/>
<path d="M61.2335 3.4364L61.267 9.1163C61.2938 13.6459 57.6438 17.3176 53.1141 17.3176C48.5865 17.3176 44.8931 13.6459 44.8663 9.1163L44.8328 3.4364C44.8184 1.00961 47.443 -0.386772 49.4225 0.774065C49.5765 0.864414 49.7265 0.969705 49.8723 1.09152L53.0339 3.75385L56.1663 1.09152C58.1519 -0.597002 61.218 0.820294 61.2335 3.4364Z" fill="#EF9F99"/>
<path d="M53.1141 17.3176C48.5865 17.3176 44.8931 13.6459 44.8663 9.1163L44.8328 3.4364C44.8184 1.00961 47.443 -0.386772 49.4225 0.774065C49.1015 5.5561 49.247 13.4735 53.1141 17.3176Z" fill="#FFDCD0"/>
<path d="M75.5685 3.4364L75.6021 9.1163C75.6289 13.6459 71.9789 17.3176 67.4492 17.3176C62.9216 17.3176 59.2282 13.6459 59.2014 9.1163L59.1678 3.4364C59.1535 1.00961 61.7781 -0.386772 63.7576 0.774065C63.9116 0.864414 64.0616 0.969705 64.2073 1.09152L67.369 3.75385L70.5013 1.09152C72.487 -0.597002 75.5531 0.820294 75.5685 3.4364Z" fill="#EF9F99"/>
<path d="M67.4492 17.3176C62.9216 17.3176 59.2282 13.6459 59.2014 9.1163L59.1678 3.4364C59.1535 1.00961 61.7781 -0.386772 63.7576 0.774065C63.4365 5.5561 63.5821 13.4735 67.4492 17.3176Z" fill="#FFDCD0"/>
<path d="M39.7785 11.4274L39.8121 17.1072C39.8388 21.6369 36.1888 25.3085 31.6591 25.3085C27.1315 25.3085 23.4381 21.6369 23.4114 17.1072L23.3778 11.4274C23.3635 9.00057 25.9881 7.6042 27.9675 8.76503C28.1215 8.85538 28.2716 8.96067 28.4173 9.08248L31.579 11.7448L34.7113 9.08248C36.697 7.39414 39.7631 8.81144 39.7785 11.4274Z" fill="#EF9F99"/>
<path d="M31.6591 25.3087C27.1315 25.3087 23.4381 21.637 23.4114 17.1074L23.3778 11.4274C23.3635 9.00057 25.9881 7.6042 27.9675 8.76503C27.6465 13.5472 27.7923 21.4646 31.6591 25.3087Z" fill="#FFDCD0"/>
<path d="M54.1129 11.4274L54.1464 17.1072C54.1732 21.6369 50.5232 25.3085 45.9935 25.3085C41.4659 25.3085 37.7725 21.6369 37.7457 17.1072L37.7122 11.4274C37.6978 9.00057 40.3224 7.6042 42.3019 8.76503C42.4559 8.85538 42.6059 8.96067 42.7516 9.08248L45.9133 11.7448L49.0457 9.08248C51.0313 7.39414 54.0974 8.81144 54.1129 11.4274Z" fill="#EF9F99"/>
<path d="M45.9933 25.3087C41.4658 25.3087 37.7724 21.637 37.7456 17.1074L37.712 11.4274C37.6977 9.00057 40.3223 7.6042 42.3018 8.76503C41.9809 13.5472 42.1265 21.4646 45.9933 25.3087Z" fill="#FFDCD0"/>
<path d="M68.4486 11.4274L68.4821 17.1072C68.5089 21.6369 64.8589 25.3085 60.3292 25.3085C55.8016 25.3085 52.1082 21.6369 52.0814 17.1072L52.0478 11.4274C52.0335 9.00057 54.6581 7.6042 56.6376 8.76503C56.7916 8.85538 56.9416 8.96067 57.0873 9.08248L60.249 11.7448L63.3814 9.08248C65.367 7.39414 68.4331 8.81144 68.4486 11.4274Z" fill="#EF9F99"/>
<path d="M60.3292 25.3087C55.8016 25.3087 52.1082 21.637 52.0814 17.1074L52.0478 11.4274C52.0335 9.00057 54.6581 7.6042 56.6376 8.76503C56.3166 13.5472 56.4623 21.4646 60.3292 25.3087Z" fill="#FFDCD0"/>
</g>
<defs>
<clipPath id="clip0_24_1007">
<rect width="90" height="90" fill="white" transform="matrix(1 0 0.00590849 0.999983 0.8479 0.358154)"/>
</clipPath>
</defs>
</svg>
