<svg width="92" height="91" viewBox="0 0 92 91" fill="none" xmlns="http://www.w3.org/2000/svg">
<g clip-path="url(#clip0_24_984)">
<path d="M90.9214 37.0989L46.525 65.55L0.911998 35.5022L45.2767 1.68018L90.9214 37.0989Z" fill="#EF9F99"/>
<path d="M45.2766 1.68018L90.9214 37.0989L46.525 65.55" fill="#EF9F99"/>
<path d="M45.9222 37.2441C42.9958 33.3248 38.9159 30.7119 33.6901 30.7119C26.1417 30.7119 20.0767 36.0828 20.1161 42.7601C20.1307 45.2278 20.8702 47.5503 22.4781 49.4374C22.4781 49.4374 22.4781 49.4374 22.6242 49.5826L46.2258 88.6303L45.9222 37.2441Z" fill="#ED6565"/>
<path d="M45.9221 37.2441C48.8022 33.3248 52.8513 30.7119 58.0771 30.7119C65.6255 30.7119 71.754 36.0828 71.7934 42.7601C71.808 45.2278 71.0959 47.5503 69.5103 49.4374C69.5103 49.4374 69.5103 49.4374 69.366 49.5826L46.2258 88.6303L45.9221 37.2441Z" fill="#ED6565"/>
<path d="M46.8128 65.1143L0.911987 35.502L1.22933 89.2107H91.2293L90.9214 37.0987L46.8128 65.1143Z" fill="#FFDCD0"/>
<path d="M1.22929 89.2111H91.2293L90.9214 37.0991L45.9426 65.2599" fill="#EFC7BE"/>
<path d="M91.2293 89.2106L90.9213 37.0986L46.3763 64.9691" fill="#FFDCD0"/>
<path d="M45.8081 17.9377C46.8503 17.9377 47.6902 17.0928 47.684 16.0506C47.6779 15.0084 46.828 14.1636 45.7858 14.1636C44.7436 14.1636 43.9037 15.0084 43.9098 16.0506C43.916 17.0928 44.7659 17.9377 45.8081 17.9377Z" fill="#FFDCD0"/>
<path d="M46.1375 73.6787C44.6782 72.3723 43.9481 71.6465 42.2062 71.6465C39.7384 71.6465 37.8616 73.3884 37.8745 75.5658C37.8788 76.2916 38.1734 77.0174 38.6131 77.7432L46.2053 85.1463L46.1375 73.6787Z" fill="#EF9F99"/>
<path d="M46.1375 73.6787C47.5814 72.3723 48.3029 71.6465 50.0448 71.6465C52.5126 71.6465 54.41 73.3884 54.4228 75.5658C54.4271 76.2916 54.1411 77.0174 53.7099 77.7432L46.2044 85.0011L46.1375 73.6787Z" fill="#EF9F99"/>
</g>
<defs>
<clipPath id="clip0_24_984">
<rect width="90" height="90" fill="white" transform="matrix(1 0 0.00590848 0.999983 0.704834 0.446289)"/>
</clipPath>
</defs>
</svg>
