<svg width="91" height="91" viewBox="0 0 91 91" fill="none" xmlns="http://www.w3.org/2000/svg">
<g clip-path="url(#clip0_24_996)">
<path d="M72.1957 78.5034C76.8351 78.5034 78.4181 72.2967 81.5112 72.2967C83.2138 72.2967 84.6123 70.9001 84.6223 69.1933L84.6407 66.0838C84.6508 64.3738 83.2765 62.9866 81.5723 62.9866H81.5662H8.87871C7.17453 62.9866 5.78221 64.3738 5.77211 66.0838L5.75373 69.1933C5.74365 70.9001 7.12722 72.2967 8.82825 72.2967C12.6294 72.2967 18.0902 75.1455 18.0703 78.5034L18.0612 80.0552C18.052 81.6022 19.5939 83.1586 21.1357 83.1586C22.6822 83.1586 24.2377 81.6068 24.2469 80.0552L24.256 78.5034C24.2827 73.9973 27.3856 72.2967 32.0249 72.2967C39.7572 72.2967 39.7003 78.5034 45.9062 78.5034C52.1136 78.5034 52.1302 72.2967 59.8624 72.2967C67.5932 72.2967 65.9899 78.5034 72.1957 78.5034Z" fill="#EF9F99"/>
<path d="M75.4636 49.0213C77.171 49.0213 78.5647 47.6309 78.5748 45.9179L78.5932 42.8146C78.6033 41.1014 77.2258 39.7112 75.5186 39.7112H16.7539C15.0465 39.7112 13.6528 41.1016 13.6427 42.8146L13.6243 45.9179C13.6142 47.6311 14.9917 49.0213 16.6989 49.0213C22.2211 49.0213 21.5072 55.228 25.9409 55.228C30.3746 55.228 29.7339 49.0213 35.2562 49.0213C40.7785 49.0213 41.6109 55.228 46.0446 55.228C50.4783 55.228 51.384 49.0213 56.9063 49.0213C61.34 49.0213 60.6259 55.228 66.1484 55.228C71.6709 55.228 71.0299 49.0213 75.4636 49.0213Z" fill="#EF9F99"/>
<path d="M57.0347 27.2974C58.742 27.2974 60.1358 25.907 60.1459 24.194L60.1642 21.0907C60.1744 19.3775 58.7969 17.9873 57.0897 17.9873H35.4395C33.7322 17.9873 32.3385 19.3777 32.3283 21.0907L32.31 24.194C32.2999 25.9072 33.6774 27.2974 35.3845 27.2974C40.9068 27.2974 41.7392 33.5042 46.1729 33.5042C50.6066 33.5042 51.5124 27.2974 57.0347 27.2974Z" fill="#EF9F99"/>
<path d="M38.6729 13.129L44.4201 17.9873H48.11L53.9131 13.129C55.3725 11.9001 56.4583 10.2879 56.9284 8.47384C57.2719 7.14091 57.1231 6.40071 57.1231 6.40071C56.8577 3.42003 54.6208 0.918701 51.4924 0.918701C49.1712 0.918701 47.1199 2.08552 46.2347 4.02207C45.3723 2.08552 43.5606 0.918701 41.2379 0.918701C38.111 0.918701 35.8431 3.42003 35.5423 6.40088C35.5423 6.40088 35.3849 7.14108 35.714 8.47243C36.1612 10.2879 37.2296 11.8985 38.6729 13.129Z" fill="#FFDCD0"/>
<path d="M72.1957 78.5034C65.9899 78.5034 67.593 72.2966 59.8624 72.2966C52.1302 72.2966 52.1136 78.5034 45.9062 78.5034C39.7003 78.5034 39.7572 72.2966 32.0249 72.2966C27.3856 72.2966 24.2827 73.9973 24.256 78.5034L24.2469 80.0551C24.2377 81.6069 22.682 83.1585 21.1357 83.1585C19.5939 83.1585 18.052 81.6022 18.0611 80.0551L18.0703 78.5034C18.0902 75.1455 12.6295 72.2966 8.82825 72.2966L8.74573 86.2619C8.73054 88.833 10.7966 90.917 13.3576 90.917H76.7618C79.3242 90.917 81.4134 88.8332 81.4286 86.2619L81.5111 72.2966C78.4183 72.2966 76.8351 78.5034 72.1957 78.5034Z" fill="#FFDCD0"/>
<path d="M66.1483 55.2282C60.626 55.2282 61.3399 49.0215 56.9062 49.0215C51.3839 49.0215 50.4782 55.2282 46.0445 55.2282C41.6107 55.2282 40.7783 49.0215 35.256 49.0215C29.7337 49.0215 30.3743 55.2282 25.9408 55.2282C21.5073 55.2282 22.2212 49.0215 16.6987 49.0215L16.6162 62.9867H75.381L75.4635 49.0215C71.03 49.0213 71.6707 55.2282 66.1483 55.2282Z" fill="#FFDCD0"/>
<path d="M57.0347 27.2975C51.5124 27.2975 50.6067 33.5042 46.173 33.5042C41.7393 33.5042 40.9068 27.2975 35.3846 27.2975C34.8185 27.2975 34.2954 27.1345 33.8406 26.8677L33.7647 39.7111H58.5077L58.5836 26.8677C58.1259 27.1345 57.6007 27.2975 57.0347 27.2975Z" fill="#FFDCD0"/>
</g>
<defs>
<clipPath id="clip0_24_996">
<rect width="89.6935" height="90" fill="white" transform="matrix(1 0 -0.00590849 0.999983 0.744629 0.918701)"/>
</clipPath>
</defs>
</svg>
